<svg width="32" height="32" viewBox="0 0 32 32" fill="none" xmlns="http://www.w3.org/2000/svg">
<path fill-rule="evenodd" clip-rule="evenodd" d="M31.8715 16.3194C31.8715 24.8747 24.9361 31.8101 16.3808 31.8101C7.82547 31.8101 0.890015 24.8747 0.890015 16.3194C0.890015 7.76406 7.82547 0.828613 16.3808 0.828613C24.9361 0.828613 31.8715 7.76406 31.8715 16.3194ZM30.5245 16.3194C30.5245 24.1308 24.1922 30.4631 16.3808 30.4631C8.56941 30.4631 2.23704 24.1308 2.23704 16.3194C2.23704 8.508 8.56941 2.17564 16.3808 2.17564C24.1922 2.17564 30.5245 8.508 30.5245 16.3194Z" fill="black"/>
<path fill-rule="evenodd" clip-rule="evenodd" d="M16.3808 27.3201C22.4563 27.3201 27.3815 22.3949 27.3815 16.3194C27.3815 10.2439 22.4563 5.31869 16.3808 5.31869C10.3053 5.31869 5.38009 10.2439 5.38009 16.3194C5.38009 22.3949 10.3053 27.3201 16.3808 27.3201ZM17.9092 9.70101C20.1406 9.85878 21.9166 10.5127 22.1494 12.5533C22.3224 14.0468 21.7118 14.9564 20.7207 15.4831C22.3746 15.8495 23.4241 16.81 23.2588 19.0084C23.0539 21.7372 21.035 22.5043 18.1369 22.7206L18.1853 25.583L16.4602 25.6148L16.4106 22.7906C15.964 22.7982 15.506 22.8033 15.0315 22.8008L15.0824 25.6377L13.3573 25.6682L13.3064 22.8008L12.8192 22.8046L12.8166 22.8046C12.5707 22.8058 12.3221 22.8071 12.0737 22.8122L9.82699 22.8504L10.1336 20.7843C10.1336 20.7843 11.4109 20.7818 11.388 20.7627C11.8765 20.7525 11.9999 20.4001 12.0266 20.1788L11.949 15.6536L12.0724 15.651H12.1309C12.0701 15.6441 12.0089 15.6411 11.9477 15.6421L11.8918 12.4108C11.8192 12.0622 11.5852 11.6602 10.8867 11.6729C10.9058 11.6475 9.63235 11.6945 9.63235 11.6945L9.59927 9.8524L11.9808 9.8117V9.82061C12.3383 9.81425 12.706 9.80153 13.0787 9.78753L13.0304 6.95182L14.7554 6.92256L14.8038 9.70101L14.9517 9.69569C15.3633 9.68079 15.776 9.66585 16.1816 9.65903L16.1332 6.89838L17.8596 6.86785L17.9092 9.70101ZM15.2241 15.173H15.2236L14.9399 15.1743L14.8801 11.728C14.9794 11.7267 15.0977 11.7216 15.2338 11.7152C16.4411 11.6618 18.913 11.5537 18.946 13.3818C18.9766 15.169 16.4036 15.1718 15.2241 15.173ZM19.8417 18.7292C19.8773 20.6947 16.7871 20.7061 15.3737 20.7112C15.2465 20.7112 15.132 20.7112 15.0366 20.7138L14.9705 16.9137C15.0688 16.9127 15.186 16.908 15.3168 16.9028L15.3928 16.8998C16.8393 16.84 19.8073 16.7191 19.8417 18.7292Z" fill="black"/>
</svg>
