<svg width="31" height="32" viewBox="0 0 31 32" fill="none" xmlns="http://www.w3.org/2000/svg">
<path d="M26.9539 19.3515C26.4197 19.6817 25.7964 19.7418 25.3215 19.4716C24.7278 19.1113 24.3717 18.3008 24.3717 17.19V13.7976C24.3717 12.1765 23.7484 11.0057 22.6798 10.7055C20.8693 10.1651 19.504 12.4167 18.9994 13.2572L15.7938 18.4509V12.0564C15.7641 10.5854 15.2892 9.71479 14.3988 9.4446C13.8052 9.26448 12.9148 9.35454 12.054 10.6755L4.90086 22.2635C3.95106 20.4322 3.44648 18.3908 3.44648 16.3194C3.44648 9.32452 8.99685 3.65057 15.7938 3.65057C22.5908 3.65057 28.1412 9.32452 28.1412 16.3194V16.3794C28.2005 17.7304 27.785 18.8111 26.9539 19.3515ZM30.8718 16.3194V16.2593C30.8421 7.76343 24.0749 0.828613 15.7938 0.828613C7.48311 0.828613 0.71582 7.76343 0.71582 16.3194C0.71582 24.8453 7.48311 31.8101 15.7938 31.8101C19.6227 31.8101 23.2438 30.3391 26.0338 27.6673C26.5977 27.1269 26.6274 26.2563 26.0932 25.6859C25.5886 25.1155 24.7278 25.0855 24.1639 25.5958C24.1639 25.5958 24.1639 25.5958 24.1342 25.6258C21.8784 27.7873 18.851 29.0182 15.7345 29.0182C12.0837 29.0182 8.81876 27.3971 6.563 24.8153L13.0038 14.368V19.2014C13.0038 21.513 13.8942 22.2635 14.6363 22.4737C15.3783 22.6838 16.5062 22.5337 17.7231 20.5823L21.2551 14.7883C21.3739 14.6082 21.4629 14.4281 21.5816 14.308V17.25C21.5816 19.4115 22.4424 21.1527 23.9264 21.9933C25.2621 22.7739 26.9539 22.6838 28.3489 21.8132C30.0704 20.6724 30.9906 18.691 30.8718 16.3194Z" fill="black"/>
</svg>
