<svg width="34" height="32" viewBox="0 0 34 32" fill="none" xmlns="http://www.w3.org/2000/svg">
<path d="M27.3476 6.80706C25.3984 5.92799 23.309 5.27825 21.1241 4.90879C21.1046 4.90505 21.0845 4.90746 21.0664 4.91568C21.0484 4.92389 21.0334 4.93751 21.0234 4.95465C20.7559 5.42476 20.4578 6.03756 20.2488 6.52168C17.9315 6.17545 15.5757 6.17545 13.2584 6.52168C13.0257 5.98514 12.7632 5.46199 12.4723 4.95465C12.4624 4.9373 12.4475 4.92337 12.4295 4.91472C12.4116 4.90607 12.3914 4.90311 12.3717 4.90624C10.188 5.2757 8.09865 5.92544 6.14814 6.80578C6.13136 6.81282 6.11714 6.82482 6.10737 6.84018C2.14267 12.6688 1.05594 18.3534 1.58975 23.9666C1.59124 23.9804 1.5955 23.9937 1.60229 24.0057C1.60908 24.0178 1.61825 24.0283 1.62925 24.0367C3.94334 25.7215 6.5244 27.0049 9.26436 27.8332C9.28346 27.8391 9.30389 27.8391 9.32298 27.8332C9.34207 27.8273 9.35894 27.8158 9.37138 27.8001C9.95997 27.0102 10.4849 26.1758 10.9333 25.2992C10.9601 25.2483 10.9346 25.1871 10.8811 25.1667C10.0581 24.8568 9.26065 24.4828 8.49613 24.0482C8.4824 24.0403 8.47082 24.0292 8.46245 24.0158C8.45407 24.0024 8.44916 23.9871 8.44815 23.9713C8.44714 23.9555 8.45006 23.9397 8.45666 23.9253C8.46325 23.911 8.47332 23.8985 8.48594 23.8889C8.64647 23.7704 8.80699 23.6469 8.95987 23.5233C8.97363 23.5122 8.99021 23.5051 9.00776 23.5028C9.0253 23.5006 9.04313 23.5033 9.05925 23.5105C14.0623 25.7579 19.4806 25.7579 24.425 23.5105C24.4412 23.5028 24.4592 23.4998 24.477 23.5018C24.4948 23.5039 24.5117 23.5109 24.5257 23.522C24.6786 23.6469 24.8378 23.7704 24.9996 23.8889C25.0123 23.8983 25.0226 23.9106 25.0294 23.9249C25.0362 23.9391 25.0394 23.9548 25.0386 23.9706C25.0378 23.9864 25.0332 24.0017 25.025 24.0153C25.0169 24.0288 25.0055 24.0401 24.992 24.0482C24.2301 24.4864 23.4377 24.8572 22.6057 25.1655C22.593 25.1701 22.5813 25.1774 22.5716 25.1869C22.5619 25.1964 22.5543 25.2079 22.5493 25.2205C22.5444 25.2332 22.5422 25.2468 22.5429 25.2603C22.5437 25.2739 22.5473 25.2872 22.5535 25.2992C23.0122 26.1745 23.537 27.0077 24.1142 27.7988C24.1262 27.8151 24.1429 27.8272 24.162 27.8336C24.1812 27.84 24.2018 27.8403 24.2212 27.8345C26.9658 27.0085 29.5511 25.7245 31.8678 24.0367C31.8791 24.0288 31.8886 24.0186 31.8956 24.0067C31.9026 23.9949 31.907 23.9816 31.9085 23.9679C32.5455 17.4781 30.8409 11.8394 27.3871 6.84273C27.3786 6.82649 27.3646 6.81383 27.3476 6.80706ZM11.6811 20.5485C10.1753 20.5485 8.93312 19.1866 8.93312 17.5163C8.93312 15.8449 10.1511 14.4842 11.6811 14.4842C13.2227 14.4842 14.4534 15.8563 14.4292 17.5163C14.4292 19.1878 13.2112 20.5485 11.6811 20.5485ZM21.8413 20.5485C20.3342 20.5485 19.0933 19.1866 19.0933 17.5163C19.0933 15.8449 20.31 14.4842 21.8413 14.4842C23.3829 14.4842 24.6136 15.8563 24.5894 17.5163C24.5894 19.1878 23.3842 20.5485 21.8413 20.5485Z" fill="black"/>
</svg>
