<svg width="29" height="29" viewBox="0 0 29 29" fill="none" xmlns="http://www.w3.org/2000/svg">
<path d="M27.5297 0.828613H2.02703C1.41371 0.828613 0.918213 1.32411 0.918213 1.93743V27.4401C0.918213 28.0534 1.41371 28.5489 2.02703 28.5489H27.5297C28.143 28.5489 28.6385 28.0534 28.6385 27.4401V1.93743C28.6385 1.32411 28.143 0.828613 27.5297 0.828613ZM24.328 8.91948H22.1139C20.3779 8.91948 20.0418 9.74416 20.0418 10.9569V13.6285H24.186L23.6454 17.8108H20.0418V28.5489H15.7209V17.8142H12.1068V13.6285H15.7209V10.5446C15.7209 6.9652 17.9073 5.01438 21.1021 5.01438C22.6336 5.01438 23.9469 5.12873 24.3315 5.1807V8.91948H24.328Z" fill="black"/>
</svg>
