<svg width="33" height="32" viewBox="0 0 33 32" fill="none" xmlns="http://www.w3.org/2000/svg">
<path d="M0.0800781 16.7115C0.0800781 7.93947 7.38179 0.828613 16.3863 0.828613C25.3916 0.828613 32.6922 7.93947 32.6922 16.7115C32.6922 23.7267 28.0259 29.6781 21.5505 31.7807C20.7239 31.9367 20.4304 31.4415 20.4304 31.0188C20.4304 30.8453 20.4325 30.5412 20.4353 30.1347C20.4409 29.3155 20.4493 28.0805 20.4493 26.6601C20.4493 25.1782 19.9282 24.2117 19.3433 23.7188C22.9743 23.3256 26.789 21.9823 26.789 15.882C26.789 14.1479 26.1563 12.7311 25.1108 11.6187C25.2801 11.2187 25.8385 9.60334 24.9509 7.4155C24.9509 7.4155 23.5835 6.98872 20.4712 9.04363C19.1681 8.69173 17.772 8.51518 16.3863 8.50912C15.0005 8.51518 13.6056 8.69173 12.3049 9.04363C9.1888 6.98872 7.8195 7.4155 7.8195 7.4155C6.93409 9.60334 7.49224 11.2187 7.66154 11.6187C6.61844 12.7311 5.98145 14.1479 5.98145 15.882C5.98145 21.9679 9.78879 23.3298 13.4106 23.7314C12.9443 24.128 12.5217 24.8288 12.3753 25.8552C11.4448 26.2611 9.08457 26.963 7.63022 24.5349C7.63022 24.5349 6.76803 23.0103 5.1306 22.8982C5.1306 22.8982 3.53963 22.8779 5.01909 23.8637C5.01909 23.8637 6.08784 24.3518 6.82959 26.1877C6.82959 26.1877 7.78683 29.0224 12.3232 28.0617C12.327 28.783 12.3333 29.4818 12.3381 30.0302C12.3422 30.4911 12.3454 30.8459 12.3454 31.0188C12.3454 31.4383 12.0462 31.9298 11.2313 31.7828C4.7523 29.6826 0.0800781 23.7291 0.0800781 16.7115Z" fill="black"/>
<path d="M5.90781 23.5026C6.02392 23.5568 6.15137 23.5331 6.18728 23.4541C6.22833 23.375 6.16082 23.2664 6.04228 23.2146C5.92428 23.1602 5.79656 23.1827 5.76145 23.264C5.72311 23.3431 5.78954 23.4507 5.90781 23.5026Z" fill="black"/>
<path d="M6.65642 24.0779C6.75958 24.1889 6.9116 24.2215 6.98937 24.1513C7.07064 24.0802 7.04985 23.9333 6.94319 23.8212C6.83626 23.7104 6.68883 23.6776 6.60863 23.7479C6.52978 23.8191 6.54977 23.9672 6.65642 24.0779Z" fill="black"/>
<path d="M7.17536 24.9062C7.27635 25.0475 7.43972 25.1108 7.53963 25.0432C7.64169 24.974 7.64169 24.8046 7.54206 24.661C7.43972 24.5208 7.27878 24.4599 7.17752 24.5278C7.07545 24.5956 7.07545 24.7649 7.17536 24.9062Z" fill="black"/>
<path d="M8.05115 26.0154C8.19049 26.1464 8.38086 26.1722 8.47023 26.0761C8.56555 25.9813 8.52235 25.7982 8.38086 25.6703C8.24045 25.5404 8.049 25.5134 7.95854 25.6096C7.86889 25.7056 7.90858 25.8873 8.05115 26.0154Z" fill="black"/>
<path d="M9.26549 26.553C9.45018 26.6059 9.63353 26.5493 9.67295 26.4249C9.7113 26.2984 9.59033 26.1538 9.40617 26.0995C9.22012 26.0431 9.03597 26.1019 8.99762 26.2271C8.96036 26.3529 9.08106 26.4986 9.26549 26.553Z" fill="black"/>
<path d="M10.6958 26.8148C10.8897 26.8124 11.0463 26.7038 11.0417 26.5728C11.0417 26.4427 10.8829 26.3374 10.689 26.3412C10.4941 26.3443 10.341 26.4519 10.341 26.5841C10.3431 26.713 10.5008 26.8191 10.6958 26.8148Z" fill="black"/>
<path d="M12.0823 26.8166C12.2748 26.7817 12.4096 26.6505 12.3863 26.5227C12.3618 26.3927 12.1892 26.3159 11.9964 26.3485C11.8074 26.3825 11.6702 26.5137 11.6937 26.6447C11.7178 26.7714 11.893 26.8503 12.0823 26.8166Z" fill="black"/>
</svg>
