<svg width="28" height="29" viewBox="0 0 28 29" fill="none" xmlns="http://www.w3.org/2000/svg">
<path d="M0 2.81408C0 1.7174 0.911305 0.828613 2.03571 0.828613H25.6846C26.809 0.828613 27.7203 1.7174 27.7203 2.81408V26.5635C27.7203 27.6601 26.809 28.5489 25.6846 28.5489H2.03571C0.911305 28.5489 0 27.6601 0 26.5635V2.81408ZM8.56385 24.034V11.5165H4.40407V24.034H8.56385ZM6.48482 9.80653C7.93494 9.80653 8.83758 8.84671 8.83758 7.64435C8.8116 6.41599 7.93667 5.48216 6.51254 5.48216C5.08841 5.48216 4.15805 6.41772 4.15805 7.64435C4.15805 8.84671 5.06069 9.80653 6.4571 9.80653H6.48482ZM14.988 24.034V17.0433C14.988 16.669 15.0157 16.2948 15.1266 16.028C15.4264 15.2813 16.1107 14.5069 17.2611 14.5069C18.7667 14.5069 19.3678 15.6538 19.3678 17.3378V24.034H23.5276V16.8544C23.5276 13.0082 21.4763 11.2203 18.7389 11.2203C16.5317 11.2203 15.5424 12.433 14.988 13.2872V13.3305H14.9603C14.9695 13.316 14.9788 13.3016 14.988 13.2872V11.5165H10.83C10.882 12.6912 10.83 24.034 10.83 24.034H14.988Z" fill="black"/>
</svg>
