<svg width="32" height="32" viewBox="0 0 32 32" fill="none" xmlns="http://www.w3.org/2000/svg">
<path d="M16.3272 0.828613C7.77629 0.828613 0.836426 7.76848 0.836426 16.3194C0.836426 24.8703 7.77629 31.8101 16.3272 31.8101C24.8781 31.8101 31.818 24.8703 31.818 16.3194C31.818 7.76848 24.8781 0.828613 16.3272 0.828613ZM23.5149 11.3623C23.2825 13.8099 22.2756 19.7583 21.7645 22.5002C21.5476 23.662 21.1138 24.0493 20.7111 24.0957C19.8126 24.1732 19.131 23.5071 18.2635 22.9339C16.9004 22.0355 16.1258 21.4778 14.8091 20.6103C13.2755 19.6034 14.2669 19.0458 15.1499 18.1473C15.3823 17.9149 19.3479 14.3056 19.4253 13.9803C19.4361 13.931 19.4347 13.8798 19.4212 13.8313C19.4077 13.7827 19.3825 13.7381 19.3479 13.7014C19.2549 13.624 19.131 13.655 19.0226 13.6705C18.8832 13.7014 16.7145 15.1421 12.4855 17.9924C11.8659 18.4106 11.3082 18.6275 10.8125 18.612C10.2548 18.5965 9.20144 18.3022 8.41141 18.0389C7.43549 17.729 6.67644 17.5586 6.73841 17.0165C6.76939 16.7376 7.15666 16.4588 7.88472 16.1645C12.408 14.1971 15.4132 12.8959 16.9158 12.2763C21.2223 10.4794 22.1052 10.1695 22.6939 10.1695C22.8178 10.1695 23.1121 10.2005 23.298 10.3554C23.4529 10.4794 23.4994 10.6498 23.5149 10.7737C23.4994 10.8666 23.5304 11.1455 23.5149 11.3623Z" fill="black"/>
</svg>
