<svg width="31" height="32" viewBox="0 0 31 32" fill="none" xmlns="http://www.w3.org/2000/svg">
<path fill-rule="evenodd" clip-rule="evenodd" d="M0.0158691 16.267C0.0158691 7.74501 6.93227 0.828613 15.4543 0.828613C23.9763 0.828613 30.8927 7.74501 30.8927 16.267C30.8927 24.789 23.9763 31.7054 15.4543 31.7054C6.93227 31.7054 0.0158691 24.789 0.0158691 16.267ZM23.0694 12.4103C23.7596 12.3276 24.416 12.1446 25.0271 11.8738L25.0257 11.876C24.5682 12.5602 23.9925 13.1574 23.3256 13.6397C23.3322 13.7861 23.3358 13.9339 23.3358 14.0803C23.3358 18.5855 19.9072 23.7801 13.6353 23.7801C11.7825 23.7822 9.9684 23.2504 8.40997 22.2484C8.68007 22.2801 8.95181 22.296 9.22377 22.2959C10.7591 22.2982 12.2505 21.784 13.4582 20.8359C12.7468 20.8229 12.0573 20.5877 11.4862 20.1633C10.915 19.7389 10.4909 19.1466 10.2732 18.4692C10.7843 18.5665 11.3108 18.5465 11.813 18.4106C11.0413 18.2547 10.3474 17.8366 9.8489 17.2272C9.3504 16.6179 9.07808 15.8548 9.07814 15.0676V15.0237C9.55154 15.2868 10.081 15.4331 10.6223 15.4503C10.1555 15.1386 9.77289 14.7164 9.50837 14.2214C9.24385 13.7263 9.10562 13.1736 9.10594 12.6122C9.10594 11.9887 9.27427 11.4032 9.567 10.8983C10.4231 11.9515 11.4912 12.813 12.7018 13.4267C13.9124 14.0405 15.2385 14.3928 16.5941 14.4609C16.4225 13.7296 16.4972 12.9621 16.8065 12.2776C17.1158 11.5931 17.6424 11.0298 18.3046 10.6752C18.9668 10.3207 19.7276 10.1947 20.4687 10.3168C21.2099 10.4389 21.89 10.8023 22.4035 11.3506C23.167 11.2007 23.8992 10.921 24.5683 10.5236C24.3143 11.3136 23.7815 11.9842 23.0694 12.4103Z" fill="black"/>
</svg>
