<svg width="18" height="17" viewBox="0 0 18 17" fill="none" xmlns="http://www.w3.org/2000/svg">
<path d="M11.2447 14.7753C11.0074 14.7753 10.7798 14.8695 10.612 15.0373C10.4442 15.2051 10.3499 15.4327 10.3499 15.67C10.3499 15.9073 10.4442 16.1349 10.612 16.3027C10.7798 16.4705 11.0074 16.5647 11.2447 16.5647H15.7183C16.1929 16.5647 16.6481 16.3762 16.9837 16.0406C17.3193 15.705 17.5078 15.2499 17.5078 14.7753V2.24895C17.5078 1.77435 17.3193 1.31919 16.9837 0.983597C16.6481 0.648006 16.1929 0.459473 15.7183 0.459473H11.2447C11.0074 0.459473 10.7798 0.553739 10.612 0.721535C10.4442 0.889331 10.3499 1.11691 10.3499 1.35421C10.3499 1.59151 10.4442 1.81909 10.612 1.98688C10.7798 2.15468 11.0074 2.24895 11.2447 2.24895H15.7183V14.7753H11.2447Z" fill="black"/>
<path d="M12.7782 9.13842C12.9419 8.97207 13.0338 8.74815 13.0341 8.51479V8.50942C13.0337 8.27301 12.9394 8.04646 12.772 7.87953L9.19302 4.30058C9.11049 4.21512 9.01176 4.14696 8.9026 4.10007C8.79343 4.05317 8.67603 4.02849 8.55722 4.02746C8.43842 4.02643 8.3206 4.04906 8.21064 4.09405C8.10068 4.13904 8.00078 4.20548 7.91678 4.28949C7.83277 4.3735 7.76633 4.4734 7.72134 4.58336C7.67635 4.69332 7.65371 4.81113 7.65475 4.92994C7.65578 5.04874 7.68046 5.16615 7.72735 5.27531C7.77425 5.38447 7.84241 5.4832 7.92787 5.56574L9.9795 7.61737H1.40255C1.16525 7.61737 0.93767 7.71163 0.769875 7.87943C0.602079 8.04723 0.507813 8.27481 0.507812 8.5121C0.507813 8.7494 0.602079 8.97698 0.769875 9.14478C0.93767 9.31257 1.16525 9.40684 1.40255 9.40684H9.9795L7.92787 11.4585C7.84241 11.541 7.77425 11.6397 7.72735 11.7489C7.68046 11.8581 7.65578 11.9755 7.65475 12.0943C7.65371 12.2131 7.67635 12.3309 7.72134 12.4409C7.76633 12.5508 7.83277 12.6507 7.91678 12.7347C8.00078 12.8187 8.10068 12.8852 8.21064 12.9302C8.3206 12.9751 8.43842 12.9978 8.55722 12.9967C8.67603 12.9957 8.79343 12.971 8.9026 12.9241C9.01176 12.8772 9.11049 12.8091 9.19302 12.7236L12.7782 9.13842Z" fill="black"/>
</svg>
