<svg width="156" height="57" viewBox="0 0 156 57" fill="none" xmlns="http://www.w3.org/2000/svg">
<path d="M73.927 31.7281C71.2692 32.3415 68.8262 32.6481 66.5978 32.6481C65.7596 32.6481 64.9623 32.6072 64.2058 32.5254C63.4699 32.4641 62.6725 32.321 61.8139 32.0961C60.9552 31.8508 60.209 31.5441 59.5753 31.1761C58.962 30.7877 58.4509 30.2562 58.042 29.5815C57.6331 28.9069 57.4286 28.13 57.4286 27.2509V17.8364C57.4286 16.6711 57.7251 15.6898 58.318 14.8925C58.9313 14.0747 59.749 13.4819 60.7712 13.1139C61.7934 12.7459 62.7645 12.4903 63.6845 12.3472C64.6045 12.2041 65.5756 12.1326 66.5978 12.1326C69.0511 12.1326 71.3408 12.2961 73.467 12.6232V14.9232C72.6901 14.7392 71.5759 14.5756 70.1244 14.4325C68.6729 14.2689 67.5178 14.1872 66.6591 14.1872C62.4681 14.1872 60.3726 15.3934 60.3726 17.8058V27.1896C60.3726 27.8642 60.5668 28.4469 60.9552 28.9375C61.3641 29.4077 61.9059 29.7655 62.5805 30.0108C63.2756 30.2357 63.9503 30.3993 64.6045 30.5015C65.2791 30.5833 66.0049 30.6242 66.7818 30.6242C68.1515 30.6242 69.6133 30.4402 71.167 30.0722V23.111H66.5058V21.0257H73.927V31.7281Z" fill="black"/>
<path d="M91.7137 22.4977V27.6496C91.7137 28.5695 91.6013 29.3464 91.3764 29.9802C91.1515 30.6139 90.8653 31.1046 90.5178 31.4521C90.1702 31.7997 89.6693 32.0655 89.0151 32.2495C88.3814 32.4335 87.768 32.5459 87.1752 32.5868C86.6027 32.6277 85.8361 32.6481 84.8752 32.6481C83.6486 32.6481 82.6877 32.6072 81.9926 32.5254C81.318 32.4437 80.6331 32.2495 79.938 31.9428C79.2633 31.6157 78.7727 31.1046 78.466 30.4095C78.1798 29.7144 78.0367 28.7944 78.0367 27.6496V22.4977C78.0367 21.5164 78.1491 20.6884 78.374 20.0137C78.6193 19.3391 78.9056 18.8177 79.2327 18.4497C79.5802 18.0818 80.0811 17.8058 80.7353 17.6218C81.3895 17.4173 81.9926 17.2947 82.5446 17.2538C83.117 17.2129 83.8939 17.1924 84.8752 17.1924C85.8565 17.1924 86.6232 17.2129 87.1752 17.2538C87.7476 17.2947 88.3609 17.4173 89.0151 17.6218C89.6693 17.8058 90.16 18.0818 90.4871 18.4497C90.8346 18.8177 91.1209 19.3391 91.3457 20.0137C91.5911 20.6884 91.7137 21.5164 91.7137 22.4977ZM88.8925 28.0482V22.0377C88.8925 20.6679 88.6165 19.8195 88.0645 19.4924C87.5125 19.1653 86.4494 19.0017 84.8752 19.0017C83.301 19.0017 82.2379 19.1653 81.6859 19.4924C81.134 19.8195 80.858 20.6679 80.858 22.0377V28.0482C80.858 28.7024 80.9295 29.2237 81.0726 29.6122C81.2157 30.0006 81.4815 30.2868 81.8699 30.4708C82.2584 30.6344 82.657 30.7366 83.0659 30.7775C83.4748 30.8184 84.0779 30.8388 84.8752 30.8388C85.6725 30.8388 86.2756 30.8184 86.6845 30.7775C87.0934 30.7366 87.492 30.6344 87.8805 30.4708C88.2689 30.2868 88.5347 30.0006 88.6778 29.6122C88.8209 29.2237 88.8925 28.7024 88.8925 28.0482Z" fill="black"/>
<path d="M123.372 12.4392L116.963 32.3415H113.498L108.744 15.7818L103.868 32.3415H100.403L94.178 12.4392H97.3366L102.274 29.5202H102.335L107.272 12.4392H110.431L115.368 29.5202H115.43L120.367 12.4392H123.372Z" fill="black"/>
<path d="M136.987 25.5336H127.02V27.7722C127.02 28.8149 127.388 29.5611 128.124 30.0108C128.86 30.4402 129.954 30.6548 131.406 30.6548C132.816 30.6548 134.482 30.4095 136.404 29.9188V32.0348C134.564 32.4437 132.775 32.6481 131.038 32.6481C126.499 32.6481 124.23 31.1353 124.23 28.1095V22.2523C124.23 20.4328 124.751 19.1346 125.794 18.3578C126.836 17.5809 128.503 17.1924 130.792 17.1924C132.939 17.1924 134.503 17.5707 135.484 18.3271C136.486 19.0631 136.987 20.3715 136.987 22.2523V25.5336ZM134.227 23.7243V21.3937C134.227 20.4942 133.951 19.8808 133.399 19.5537C132.847 19.2062 131.927 19.0324 130.639 19.0324C129.412 19.0324 128.503 19.196 127.91 19.5231C127.317 19.8502 127.02 20.4737 127.02 21.3937V23.7243H134.227Z" fill="black"/>
<path d="M155.023 21.3937V27.4962C155.023 28.3958 154.89 29.1726 154.625 29.8268C154.359 30.481 154.021 30.9921 153.613 31.3601C153.224 31.7077 152.703 31.9837 152.049 32.1881C151.394 32.3926 150.781 32.5152 150.209 32.5561C149.636 32.6174 148.941 32.6481 148.123 32.6481C147.06 32.6481 146.191 32.597 145.517 32.4948C144.842 32.3926 144.167 32.1779 143.493 31.8508C142.818 31.5237 142.317 31.0024 141.99 30.2868C141.663 29.5508 141.5 28.6206 141.5 27.4962V10.8752H144.259V15.3218C144.259 15.7103 144.249 16.3031 144.229 17.1004C144.229 17.8773 144.229 18.46 144.229 18.8484C144.311 18.3782 144.73 17.9898 145.486 17.6831C146.263 17.356 147.398 17.1924 148.89 17.1924C152.979 17.1924 155.023 18.5929 155.023 21.3937ZM152.202 27.8949V22.0683C152.202 20.8008 151.906 20.0035 151.313 19.6764C150.72 19.3288 149.667 19.1551 148.154 19.1551C146.703 19.1551 145.691 19.3493 145.118 19.7377C144.546 20.1262 144.259 20.903 144.259 22.0683V27.8949C144.259 29.142 144.535 29.9495 145.087 30.3175C145.66 30.665 146.692 30.8388 148.185 30.8388C149.698 30.8388 150.74 30.665 151.313 30.3175C151.906 29.9495 152.202 29.142 152.202 27.8949Z" fill="black"/>
<path d="M63.6592 51.8005V54.6199C63.6592 55.0354 63.5978 55.3944 63.475 55.6966C63.3522 55.9988 63.1964 56.235 63.0075 56.405C62.828 56.5656 62.5871 56.6931 62.2849 56.7875C61.9827 56.882 61.6993 56.9386 61.4348 56.9575C61.1704 56.9859 60.8492 57 60.4714 57C59.9803 57 59.5789 56.9764 59.2672 56.9292C58.9555 56.882 58.6438 56.7828 58.3321 56.6317C58.0204 56.4806 57.789 56.2397 57.6379 55.9091C57.4867 55.5691 57.4112 55.1393 57.4112 54.6199V46.9409H58.6863V48.9952C58.6863 49.1747 58.6816 49.4486 58.6721 49.817C58.6721 50.1759 58.6721 50.4451 58.6721 50.6245C58.7099 50.4073 58.9035 50.2278 59.253 50.0862C59.6119 49.935 60.1361 49.8595 60.8256 49.8595C62.7147 49.8595 63.6592 50.5065 63.6592 51.8005ZM62.3557 54.804V52.1122C62.3557 51.5266 62.2188 51.1582 61.9449 51.0071C61.671 50.8465 61.1845 50.7662 60.4856 50.7662C59.815 50.7662 59.3474 50.8559 59.083 51.0354C58.8185 51.2149 58.6863 51.5738 58.6863 52.1122V54.804C58.6863 55.3802 58.8138 55.7533 59.0688 55.9233C59.3333 56.0839 59.8103 56.1641 60.4998 56.1641C61.1987 56.1641 61.6804 56.0839 61.9449 55.9233C62.2188 55.7533 62.3557 55.3802 62.3557 54.804Z" fill="black"/>
<path d="M69.3136 50.9504H68.6052C68.0196 50.9504 67.5851 51.026 67.3017 51.1771C67.0278 51.3282 66.8909 51.6116 66.8909 52.0271V56.8584H65.6158V50.0012H66.82V51.1204C66.82 50.7898 67.0231 50.497 67.4292 50.242C67.8448 49.987 68.2651 49.8595 68.6902 49.8595H69.3136V50.9504Z" fill="black"/>
<path d="M76.2216 53.7131H71.617V54.7474C71.617 55.2291 71.7871 55.5738 72.1271 55.7816C72.4671 55.98 72.9724 56.0791 73.643 56.0791C74.2947 56.0791 75.0645 55.9658 75.9524 55.7391V56.7167C75.1023 56.9056 74.2759 57 73.473 57C71.3762 57 70.3278 56.3011 70.3278 54.9032V52.1972C70.3278 51.3565 70.5686 50.7568 71.0503 50.3979C71.532 50.0389 72.3018 49.8595 73.3597 49.8595C74.3514 49.8595 75.074 50.0342 75.5273 50.3837C75.9902 50.7237 76.2216 51.3282 76.2216 52.1972V53.7131ZM74.9465 52.8772V51.8005C74.9465 51.3849 74.819 51.1015 74.5639 50.9504C74.3089 50.7898 73.8839 50.7095 73.2888 50.7095C72.7221 50.7095 72.3018 50.7851 72.0279 50.9362C71.754 51.0874 71.617 51.3754 71.617 51.8005V52.8772H74.9465Z" fill="black"/>
<path d="M83.5769 56.8584H82.3443V56.2066C82.2404 56.7356 81.5509 57 80.2758 57C79.3312 57 78.6748 56.8584 78.3064 56.575C77.9475 56.2822 77.7681 55.6966 77.7681 54.8182C77.7681 54.0531 77.9381 53.5289 78.2781 53.2456C78.6181 52.9528 79.2746 52.8064 80.2474 52.8064H82.3018V51.7155C82.3018 51.3377 82.1837 51.0826 81.9476 50.9504C81.7209 50.8182 81.2864 50.752 80.6441 50.752C79.9452 50.752 79.1612 50.8087 78.2923 50.9221V49.987C79.2273 49.902 80.0727 49.8595 80.8283 49.8595C81.9806 49.8595 82.7268 50.0012 83.0668 50.2845C83.4068 50.5584 83.5769 51.1346 83.5769 52.013V56.8584ZM82.3018 55.4699V53.5998H80.3324C79.7468 53.5998 79.3785 53.6753 79.2273 53.8265C79.0857 53.9776 79.0148 54.3223 79.0148 54.8607C79.0148 55.3424 79.0904 55.6824 79.2415 55.8808C79.4021 56.0697 79.7327 56.1641 80.2333 56.1641H80.4883C80.7339 56.1641 80.9369 56.1594 81.0975 56.15C81.2675 56.1405 81.4564 56.1169 81.6642 56.0791C81.872 56.0319 82.0278 55.9611 82.1317 55.8666C82.2451 55.7627 82.3018 55.6305 82.3018 55.4699Z" fill="black"/>
<path d="M91.9371 56.8584H90.3503L87.2192 53.1039L90.1094 50.0012H91.6679L88.6926 53.1039L91.9371 56.8584ZM87.0633 56.8584H85.7882V46.9409H87.0633V56.8584Z" fill="black"/>
<path d="M100.638 56.8867C100.185 56.9623 99.7077 57 99.2071 57C98.3476 57 97.7478 56.8536 97.4078 56.5608C97.0678 56.2586 96.8978 55.6919 96.8978 54.8607V50.8371H95.3677V50.0012H96.8978V47.876H98.187V50.0012H100.638V50.8371H98.187V54.9315C98.187 55.4227 98.2815 55.7533 98.4704 55.9233C98.6593 56.0839 99.0418 56.1641 99.618 56.1641C99.7691 56.1641 100.109 56.1264 100.638 56.0508V56.8867Z" fill="black"/>
<path d="M107.939 56.8584H106.664V51.9138C106.664 51.7438 106.65 51.6021 106.622 51.4888C106.593 51.3754 106.532 51.2621 106.438 51.1487C106.353 51.026 106.201 50.9362 105.984 50.8796C105.776 50.8134 105.512 50.7804 105.191 50.7804C104.407 50.7804 103.897 50.8654 103.661 51.0354C103.425 51.2054 103.306 51.4982 103.306 51.9138V56.8584H102.031V46.9409H103.306V50.8371C103.439 50.1853 104.19 49.8595 105.559 49.8595C106.466 49.8595 107.089 50.0248 107.429 50.3554C107.769 50.6765 107.939 51.1676 107.939 51.8288V56.8584Z" fill="black"/>
<path d="M115.792 53.7131H111.187V54.7474C111.187 55.2291 111.357 55.5738 111.697 55.7816C112.037 55.98 112.543 56.0791 113.213 56.0791C113.865 56.0791 114.635 55.9658 115.523 55.7391V56.7167C114.672 56.9056 113.846 57 113.043 57C110.946 57 109.898 56.3011 109.898 54.9032V52.1972C109.898 51.3565 110.139 50.7568 110.62 50.3979C111.102 50.0389 111.872 49.8595 112.93 49.8595C113.922 49.8595 114.644 50.0342 115.097 50.3837C115.56 50.7237 115.792 51.3282 115.792 52.1972V53.7131ZM114.517 52.8772V51.8005C114.517 51.3849 114.389 51.1015 114.134 50.9504C113.879 50.7898 113.454 50.7095 112.859 50.7095C112.292 50.7095 111.872 50.7851 111.598 50.9362C111.324 51.0874 111.187 51.3754 111.187 51.8005V52.8772H114.517Z" fill="black"/>
<path d="M122.275 56.8584H121V46.9409H122.275V56.8584Z" fill="black"/>
<path d="M125.762 48.8536H124.487V47.5218H125.762V48.8536ZM125.762 56.8584H124.487V50.0012H125.762V56.8584Z" fill="black"/>
<path d="M138.372 56.8584H137.097V51.9138C137.097 51.7438 137.083 51.6021 137.055 51.4888C137.027 51.3754 136.965 51.2621 136.871 51.1487C136.786 51.026 136.635 50.9362 136.417 50.8796C136.21 50.8134 135.945 50.7804 135.624 50.7804C134.878 50.7804 134.396 50.8607 134.179 51.0212C133.971 51.1818 133.867 51.4793 133.867 51.9138V56.8584H132.592V51.9138C132.592 51.7438 132.578 51.6021 132.55 51.4888C132.521 51.3754 132.46 51.2621 132.365 51.1487C132.28 51.026 132.134 50.9362 131.926 50.8796C131.718 50.8134 131.454 50.7804 131.133 50.7804C130.377 50.7804 129.872 50.8607 129.617 51.0212C129.371 51.1724 129.248 51.4699 129.248 51.9138V56.8584H127.973V50.0012H129.248V50.8371C129.381 50.1853 130.15 49.8595 131.558 49.8595C132.701 49.8595 133.414 50.1712 133.697 50.7946C133.792 50.4734 134.056 50.2373 134.491 50.0862C134.934 49.935 135.454 49.8595 136.049 49.8595C136.927 49.8595 137.532 50.0248 137.862 50.3554C138.202 50.6765 138.372 51.1676 138.372 51.8288V56.8584Z" fill="black"/>
<path d="M141.853 48.8536H140.578V47.5218H141.853V48.8536ZM141.853 56.8584H140.578V50.0012H141.853V56.8584Z" fill="black"/>
<path d="M148.371 56.8867C147.918 56.9623 147.441 57 146.94 57C146.081 57 145.481 56.8536 145.141 56.5608C144.801 56.2586 144.631 55.6919 144.631 54.8607V50.8371H143.101V50.0012H144.631V47.876H145.92V50.0012H148.371V50.8371H145.92V54.9315C145.92 55.4227 146.015 55.7533 146.204 55.9233C146.393 56.0839 146.775 56.1641 147.351 56.1641C147.502 56.1641 147.842 56.1264 148.371 56.0508V56.8867Z" fill="black"/>
<path d="M154.851 54.4498V55.0449C154.851 55.7816 154.591 56.2917 154.072 56.575C153.562 56.8584 152.825 57 151.861 57C151.125 57 150.341 56.9434 149.51 56.83V55.8524C150.643 56.0319 151.436 56.1216 151.89 56.1216C152.456 56.1216 152.882 56.0697 153.165 55.9658C153.448 55.8524 153.59 55.6258 153.59 55.2857V54.5915C153.59 54.2987 153.491 54.0909 153.292 53.9681C153.094 53.8453 152.773 53.784 152.329 53.784H151.55C150.832 53.784 150.289 53.6376 149.92 53.3448C149.552 53.0425 149.368 52.6316 149.368 52.1122V51.4746C149.368 50.3979 150.388 49.8595 152.428 49.8595C152.655 49.8595 153.349 49.8973 154.511 49.9728V50.8937C153.699 50.7615 152.985 50.6954 152.371 50.6954C151.691 50.6954 151.229 50.7615 150.983 50.8937C150.747 51.026 150.629 51.2479 150.629 51.5596V52.1405C150.629 52.6033 151.049 52.8347 151.89 52.8347H152.683C154.128 52.8347 154.851 53.3731 154.851 54.4498Z" fill="black"/>
<rect x="57.6058" y="39.3483" width="97.9021" height="1.79947" fill="black"/>
<path d="M49.1546 10.7965L45.5613 17.0202H38.3748L34.7816 10.7965L38.3748 4.57275L45.5613 4.57275L49.1546 10.7965Z" fill="#FFAC22"/>
<path d="M34.7815 3.56984L32.7347 7.11502H28.6411L26.5943 3.56984L28.6411 0.0246582L32.7347 0.0246584L34.7815 3.56984Z" fill="#FFAC22"/>
<path d="M33.8148 16.5864L31.6701 20.3011H27.3808L25.2361 16.5864L27.3808 12.8717L31.6701 12.8717L33.8148 16.5864Z" fill="#FFAC22"/>
<path d="M25.2355 23.257L21.8266 29.1614H15.0087L11.5998 23.257L15.0087 17.3525L21.8266 17.3525L25.2355 23.257Z" fill="#FFAC22"/>
<path d="M41.9273 32.3412L37.7545 39.5687H29.4089L25.2361 32.3412L29.4089 25.1136L37.7545 25.1136L41.9273 32.3412Z" fill="#FFAC22"/>
<path d="M33.8147 48.3406L31.5298 52.2981H26.9601L24.6752 48.3406L26.9601 44.3831L31.5298 44.3831L33.8147 48.3406Z" fill="#FFAC22"/>
<path d="M43.1186 53.5458L41.2064 56.8579H37.3819L35.4697 53.5458L37.3819 50.2338L41.2064 50.2338L43.1186 53.5458Z" fill="#FFAC22"/>
<path d="M24.0526 41.1488L20.5983 47.1319H13.6897L10.2354 41.1488L13.6897 35.1658L20.5983 35.1658L24.0526 41.1488Z" fill="#FFAC22"/>
<path d="M11.155 31.6162L8.48931 36.2334H3.15785L0.492126 31.6162L3.15785 26.999L8.48931 26.999L11.155 31.6162Z" fill="#FFAC22"/>
</svg>
